<svg width="106" height="121" viewBox="0 0 106 121" fill="none" xmlns="http://www.w3.org/2000/svg">
<path fill-rule="evenodd" clip-rule="evenodd" d="M0.0119629 1.00595C0.0699629 1.57495 0.113963 2.10095 0.158963 2.62795C0.614963 7.72095 1.05596 12.8199 1.51596 17.9089C2.10096 24.3799 2.68896 30.8629 3.26396 37.3339C3.75196 42.7809 4.23296 48.2319 4.71496 53.6849C5.26396 59.8199 5.81696 65.948 6.36596 72.0919C6.84796 77.5279 7.33196 82.9899 7.81796 88.4339C8.40996 95.0699 9.01296 101.697 9.57896 108.332C9.61296 108.763 9.75196 108.944 10.175 109.057C24.233 113.017 38.281 116.978 52.322 120.929C52.674 121.024 53.1 121.02 53.454 120.929C67.56 116.978 81.651 113.026 95.759 109.083C96.239 108.944 96.386 108.737 96.42 108.263C96.727 104.57 97.068 100.877 97.392 97.1839C97.751 93.1109 98.127 89.0299 98.486 84.9439C98.814 81.299 99.134 77.657 99.467 74.007C99.834 69.9259 100.197 65.8449 100.56 61.7679C100.879 58.1199 101.208 54.4789 101.537 50.8289C101.899 46.7649 102.262 42.7009 102.625 38.6369C102.954 34.9779 103.273 31.3219 103.61 27.6549C103.973 23.5909 104.336 19.5249 104.699 15.4609C105.028 11.7589 105.36 8.04895 105.702 4.34695C105.797 3.22295 105.892 2.10995 105.996 0.970947C70.641 1.00595 35.371 1.00595 0.0119629 1.00595ZM85.069 36.1579C68.161 36.1579 51.268 36.1579 34.312 36.1579C34.712 40.7229 35.105 45.2379 35.494 49.7739C51.639 49.7739 67.737 49.7739 83.889 49.7739C83.773 50.7339 83.621 51.6379 83.535 52.5529C83.31 54.8539 83.094 57.1599 82.891 59.4579C82.52 63.6269 82.157 67.808 81.793 71.9799C81.47 75.7199 81.15 79.4519 80.817 83.1969C80.605 85.5609 80.372 87.9249 80.173 90.2809C80.139 90.6519 79.901 90.66 79.681 90.7299C73.959 92.2999 68.247 93.879 62.526 95.4409C59.389 96.312 56.261 97.1929 53.113 98.0549C52.973 98.0979 52.778 98.073 52.627 98.021C43.752 95.587 34.878 93.145 26.011 90.7209C25.605 90.6129 25.597 90.3669 25.569 90.0739C25.344 87.2259 25.117 84.4049 24.905 81.5569C24.609 77.7439 24.309 73.9209 24.007 70.0989C23.998 70.0039 23.998 69.8829 23.989 69.7449C28.371 69.7449 32.742 69.7449 37.136 69.7449C37.246 70.9869 37.365 72.2299 37.473 73.4469C37.668 75.6119 37.862 77.7739 38.048 79.9529C38.065 80.1939 38.141 80.2969 38.378 80.3669C43.14 81.6349 47.893 82.9209 52.662 84.1979C52.83 84.2409 53.033 84.2239 53.206 84.1799C57.903 82.9209 62.599 81.6439 67.305 80.3919C67.591 80.3149 67.716 80.1849 67.742 79.8919C68.26 74.3519 68.783 68.8049 69.319 63.2729C69.319 63.2559 69.31 63.2389 69.302 63.1739C53.977 63.1739 38.648 63.1739 23.278 63.1739C22.079 49.7829 20.885 36.4409 19.685 23.0599C41.919 23.0599 64.06 23.0599 86.309 23.0599C85.903 27.4239 85.484 31.7659 85.069 36.1579Z" fill="#D86518"/>
</svg>
