<svg width="62" height="44" viewBox="0 0 62 44" fill="none" xmlns="http://www.w3.org/2000/svg">
<path d="M55.7031 12.8937C59.1906 12.8937 62 10.0359 62 6.54844C62 3.06093 59.1906 0.203125 55.7031 0.203125H18.9391C15.4516 0.203125 12.5938 3.06093 12.6422 6.54844C12.6422 10.0359 15.4516 12.8937 18.9391 12.8937H55.7031Z" fill="white"/>
<path d="M55.6063 22C55.6063 25.4875 52.7969 28.3453 49.3094 28.3453H12.5938C9.10625 28.3453 6.29688 25.4875 6.29688 22C6.29688 18.5125 9.10625 15.6547 12.5938 15.6547H49.3094C52.7969 15.6547 55.6063 18.5125 55.6063 22Z" fill="white"/>
<path d="M6.29688 31.1063C2.80938 31.1063 0 33.9641 0 37.4516C0 40.9391 2.80938 43.7969 6.29688 43.7969C9.78437 43.7969 12.5938 40.9391 12.5938 37.4516C12.5938 33.9641 9.78437 31.1063 6.29688 31.1063Z" fill="white"/>
<path d="M43.2062 43.7969C46.6937 43.7969 49.5031 40.9391 49.5031 37.4516C49.5031 33.9156 46.6937 31.1063 43.2062 31.1063H21.6516C18.1641 31.1063 15.3547 33.9641 15.3547 37.4516C15.3547 40.9391 18.1641 43.7969 21.6516 43.7969H43.2062Z" fill="white"/>
</svg>
